<?xml version="1.0" encoding="utf-8"?>
<!-- Generator: Adobe Illustrator 21.0.0, SVG Export Plug-In . SVG Version: 6.00 Build 0)  -->
<svg version="1.1" id="Capa_1" xmlns="http://www.w3.org/2000/svg" xmlns:xlink="http://www.w3.org/1999/xlink" x="0px" y="0px"
	 viewBox="0 0 400 80" style="enable-background:new 0 0 400 80;" xml:space="preserve">
<style type="text/css">
	.st0{fill:#FFFFFF;}
	.st1{fill:#FFBE12;}
	.st2{fill-rule:evenodd;clip-rule:evenodd;fill:#FFBE12;}
</style>
<path class="st0" d="M144.2,51.8c0-6.1-4.6-10.7-10.9-10.7c-6.3,0-10.9,4.6-10.9,10.7c0,6.2,4.6,10.8,10.9,10.8
	C139.6,62.6,144.2,57.9,144.2,51.8z M160.1,28.1v47.2h-12.9l-1.4-3.3c-4,3.1-9,4.9-14.6,4.9c-14.8,0-25.5-10.5-25.5-25.2
	c0-14.6,10.6-25,25.5-25c5.7,0,10.8,1.9,14.8,5.1l1.7-3.7L160.1,28.1z"/>
<path class="st0" d="M245.1,45.8v29.6h-16.7V47.8c0-4.9-1.9-7.3-5.4-7.3c-4.6,0-7,3.1-7,9v25.9h-16.3V47.8c0-4.8-1.9-7.3-5.4-7.3
	c-4.5,0-7,3.2-7,9v25.9h-16.7V28.2h11.8l2.4,5.1c3.5-4,8.6-6.5,14.2-6.5c5.9,0,10.9,2.6,13.9,7c3.5-4.3,8.9-7,14.9-7
	C238.2,26.8,245.1,34.7,245.1,45.8z"/>
<path class="st0" d="M292.3,51.8c0-6.2-4.6-10.8-10.9-10.8c-6.3,0-10.9,4.6-10.9,10.8c0,6.1,4.6,10.7,10.9,10.7
	C287.6,62.6,292.3,57.9,292.3,51.8z M283.7,26.7c14.9,0,25.5,10.4,25.5,25.1c0,14.7-10.6,25.1-25.5,25.1c-5.7,0-12-3.1-16-6.3
	l-0.2,4.8h-12.4V11.1h16.5V30C275.1,27.9,279.2,26.7,283.7,26.7z"/>
<rect x="316.8" y="28.2" class="st0" width="16.7" height="47.2"/>
<path class="st0" d="M368.5,62.3c6.1,0,10.5-4.3,10.5-10.5c0-6.2-4.4-10.6-10.5-10.6c-6.1,0-10.5,4.3-10.5,10.5
	C358,58,362.4,62.3,368.5,62.3z M341.2,51.8c0-14.6,11.4-25.2,27.2-25.2c15.8,0,27.2,10.5,27.2,25.2c0,14.6-11.4,25.2-27.2,25.2
	C352.6,77,341.2,66.4,341.2,51.8z"/>
<path class="st1" d="M39.1,58.6c-2.5,0.4-4.6,0.8-6.8,1c-2.3,0.2-4.1-0.9-4.2-3.2c-0.2-4.5-0.1-9-0.1-13.7c4.3,0,12.5,0,16.6,0
	c0-5.4,0.1-10.5,0.1-15.9c-4.3,0-12.5,0-16.9,0c0-4.8,0-13.3,0-17.9c-6.4,0-8.8-0.1-17.3,0c-0.1,4.9,0.1,13.3-0.1,18.1
	c-2.3,0-4.2,0-6.2,0c0,5.3,0,10.5,0,15.9c1.9,0,3.7,0,5.7,0c0,5.6-0.2,10.8,0,16.1c0.3,7,2.7,12.9,10,15.6
	c7.3,2.7,14.5,1.6,21.9-0.7C41,68.7,40.1,63.8,39.1,58.6z"/>
<path class="st2" d="M102.9,27c-3.5,5-7,10.2-10.5,15.2c-1.5,2.2-3,4.4-4.7,6.5c-1.3,1.6-1.3,2.7,0.1,4.3c5.6,6.6,11,13.4,16.5,20.1
	c0.4,0.4,0.7,0.9,1.3,1.9c-2.5,0-4.7,0-6.8,0c-4.3,0-8.6,0.1-12.9-0.1c-1.2-0.1-2.7-0.8-3.4-1.6c-3.9-4.6-7.6-9.4-11.3-14.1
	c-0.5-0.6-1-1.1-1.5-1.7c-0.2,0.1-0.4,0.1-0.6,0.2c0,5.7,0,11.3,0,17.1c-6,0-11.7,0-17.6,0c0-23.9,0-41.9,0-66c7.9,0,12.6,0,17.7,0
	c0,13.4,0,20.9,0,34.3c0.2,0.1,0.4,0.1,0.6,0.2c2.2-3.2,10.8-16.4,10.8-16.4L102.9,27z"/>
<path class="st1" d="M329.4,11.7l9-8.6c0,0,5.4,6-0.2,10.2c-3,2.1-8.5-0.1-8.4-1C329.8,11.4,329.4,11.7,329.4,11.7z"/>
<path class="st0" d="M330,11.2c4.3,3.5,8.8,1.6,8.8,1.6s0,0-7.6,7.7c-4.6,4.7-10.3-0.1-10.3-0.1l-4.5-4.2l9.2-9.3L330,11.2z"/>
</svg>
